<svg xmlns="http://www.w3.org/2000/svg" xmlns:xlink="http://www.w3.org/1999/xlink" width="500" zoomAndPan="magnify" viewBox="0 0 375 374.999991" height="500" preserveAspectRatio="xMidYMid meet" version="1.0"><defs><g/><clipPath id="dcb71ae47e"><path d="M 79 81 L 296 81 L 296 299 L 79 299 Z M 79 81 " clip-rule="nonzero"/></clipPath><clipPath id="d73ce68eae"><path d="M 233.078125 43.28125 L 332.683594 239.164062 L 142.152344 336.046875 L 42.546875 140.167969 Z M 233.078125 43.28125 " clip-rule="nonzero"/></clipPath><clipPath id="6d7e36be1e"><path d="M 233.078125 43.28125 L 332.683594 239.164062 L 142.152344 336.046875 L 42.546875 140.167969 Z M 233.078125 43.28125 " clip-rule="nonzero"/></clipPath><clipPath id="41cc91620a"><path d="M 267.851562 119.449219 C 227.890625 73.746094 159.375 68.097656 115.125 106.847656 C 105.566406 115.21875 97.8125 125.175781 91.890625 136.347656 L 92.171875 136.496094 L 91.890625 136.347656 C 81.742188 155.480469 77.746094 177.214844 80.324219 199.199219 C 82.960938 221.671875 92.332031 242.675781 107.429688 259.941406 C 147.359375 305.597656 215.804688 311.246094 260.007812 272.53125 C 304.257812 233.777344 307.816406 165.148438 267.851562 119.449219 Z M 103.613281 239.429688 C 105.304688 241.363281 106.78125 242.875 107.894531 243.953125 C 115.304688 251.125 125.546875 251.679688 136.390625 252.265625 C 148.914062 252.945312 163.109375 253.714844 175.320312 265.085938 C 185.660156 274.714844 195.8125 283.144531 207.289062 286.984375 C 195.652344 283.511719 185.414062 275.609375 175.339844 266.832031 C 163.191406 256.253906 149.308594 255.035156 137.058594 253.957031 C 126.066406 252.992188 115.683594 252.082031 108.179688 244.695312 C 101.488281 238.105469 95.195312 229.558594 90.386719 219.550781 C 94.726562 228.3125 99.730469 234.992188 103.613281 239.429688 Z M 98.871094 232.570312 C 100.386719 234.609375 101.855469 236.40625 103.195312 237.9375 C 105.078125 240.089844 106.71875 241.742188 107.921875 242.886719 C 115.152344 249.746094 125.203125 249.953125 135.84375 250.167969 C 148.691406 250.429688 163.253906 250.722656 175.597656 262.992188 C 185.730469 273.066406 195.132812 281.800781 206.339844 286.160156 C 195.363281 282.195312 185.578125 274.039062 175.617188 264.761719 C 163.289062 253.277344 149.007812 252.507812 136.410156 251.824219 C 125.652344 251.242188 115.492188 250.695312 108.199219 243.636719 C 106.960938 242.4375 103.199219 238.625 98.871094 232.570312 Z M 175.058594 268.90625 C 163.136719 259.21875 149.679688 257.585938 137.808594 256.148438 C 126.542969 254.785156 115.902344 253.492188 108.164062 245.75 C 102.136719 239.726562 96.449219 232.09375 91.863281 223.257812 C 95.976562 230.96875 100.488281 236.886719 103.996094 240.894531 C 105.511719 242.628906 106.839844 244.007812 107.863281 245.015625 C 115.480469 252.515625 125.945312 253.433594 137.019531 254.410156 C 149.199219 255.480469 163.003906 256.691406 175.042969 267.171875 C 185.390625 276.1875 195.914062 284.289062 207.933594 287.660156 C 195.730469 284.65625 185.113281 277.070312 175.058594 268.902344 Z M 208.328125 288.253906 C 195.636719 285.695312 184.699219 278.472656 174.777344 270.976562 C 163.132812 262.179688 150.703125 260.265625 138.679688 258.410156 C 127.097656 256.628906 116.15625 254.941406 108.140625 246.8125 C 102.128906 240.710938 96.460938 233.019531 91.878906 224.144531 C 96.128906 232.164062 100.792969 238.28125 104.347656 242.34375 C 105.695312 243.890625 106.890625 245.140625 107.835938 246.085938 C 115.691406 253.941406 126.410156 255.242188 137.753906 256.617188 C 150.140625 258.117188 162.949219 259.671875 174.765625 269.269531 C 185.015625 277.597656 195.84375 285.320312 208.332031 288.257812 Z M 104.472656 243.5625 C 105.554688 244.800781 106.667969 245.996094 107.796875 247.148438 C 115.925781 255.390625 126.945312 257.089844 138.609375 258.886719 C 150.570312 260.730469 162.945312 262.636719 174.484375 271.359375 C 183.765625 278.375 194.808594 285.734375 207.355469 288.566406 C 195.421875 286.300781 184.640625 280.160156 174.492188 273.050781 C 163.199219 265.136719 151.257812 262.914062 139.710938 260.761719 C 127.746094 258.535156 116.445312 256.433594 108.121094 247.871094 C 101.53125 241.101562 95.339844 232.441406 90.554688 222.394531 C 94.320312 230.140625 99.054688 237.371094 104.472656 243.566406 Z M 104.769531 244.957031 C 105.746094 246.074219 106.746094 247.164062 107.769531 248.210938 C 116.207031 256.886719 127.582031 259.003906 139.625 261.246094 C 151.121094 263.386719 163.003906 265.601562 174.210938 273.453125 C 183.96875 280.289062 197.074219 288.328125 211.957031 289.839844 C 212.632812 289.910156 213.3125 289.949219 213.988281 289.988281 C 199.3125 289.484375 186.335938 282.964844 174.214844 275.117188 C 163.347656 268.082031 151.960938 265.613281 140.949219 263.222656 C 128.53125 260.523438 116.800781 257.980469 108.105469 248.925781 C 101.671875 242.226562 95.617188 233.726562 90.871094 223.902344 C 94.652344 231.597656 99.371094 238.78125 104.773438 244.957031 Z M 105.984375 251.726562 C 106.523438 252.339844 107.066406 252.941406 107.613281 253.542969 C 118.855469 265.757812 133.753906 270.492188 149.527344 275.5 C 157.1875 277.929688 165.113281 280.445312 172.84375 283.917969 C 188.453125 290.921875 203.253906 293.597656 217.441406 291.933594 C 203.289062 293.945312 188.472656 291.789062 172.785156 285.480469 C 166.503906 282.953125 160.101562 280.835938 153.90625 278.792969 C 136.605469 273.078125 120.265625 267.679688 108.003906 254.226562 C 105.210938 251.164062 102.554688 247.816406 100.0625 244.246094 C 101.925781 246.84375 103.898438 249.34375 105.980469 251.730469 Z M 99.550781 242.503906 C 101.488281 245.238281 103.550781 247.859375 105.734375 250.355469 C 106.359375 251.074219 107 251.78125 107.644531 252.476562 C 118.050781 263.679688 131.855469 267.785156 146.472656 272.144531 C 155.242188 274.753906 164.3125 277.453125 173.117188 281.824219 C 186.332031 288.386719 198.789062 291.71875 210.792969 291.820312 C 198.714844 292.09375 186.183594 289.289062 173.074219 283.410156 C 165.308594 279.925781 157.371094 277.402344 149.695312 274.96875 C 133.996094 269.984375 119.167969 265.277344 108.027344 253.167969 C 105.03125 249.910156 102.191406 246.34375 99.550781 242.507812 Z M 104.929688 246.214844 C 105.847656 247.261719 106.78125 248.285156 107.738281 249.28125 C 116.539062 258.445312 128.34375 261.007812 140.839844 263.71875 C 151.808594 266.101562 163.148438 268.5625 173.9375 275.546875 C 188.527344 284.992188 200.394531 289.558594 212.402344 290.339844 C 198.007812 289.832031 185.28125 283.957031 173.929688 277.191406 C 163.589844 271.03125 152.839844 268.382812 142.445312 265.820312 C 129.46875 262.625 117.21875 259.605469 108.085938 249.988281 C 103.78125 245.453125 99.652344 240.113281 95.96875 234.125 C 98.660156 238.421875 101.660156 242.476562 104.929688 246.21875 Z M 105.207031 247.605469 C 106.023438 248.535156 106.859375 249.453125 107.707031 250.34375 C 116.941406 260.074219 129.269531 263.109375 142.316406 266.328125 C 152.675781 268.878906 163.386719 271.519531 173.660156 277.640625 C 187.835938 286.082031 200.058594 290.269531 212.03125 290.796875 C 197.351562 290.609375 184.484375 285.175781 173.644531 279.261719 C 163.964844 273.980469 153.960938 271.246094 144.289062 268.597656 C 130.625 264.859375 117.71875 261.328125 108.066406 251.046875 C 104.386719 247.132812 100.9375 242.742188 97.8125 237.949219 C 100.09375 241.339844 102.558594 244.574219 105.207031 247.605469 Z M 105.476562 248.980469 C 106.195312 249.804688 106.929688 250.613281 107.675781 251.410156 C 117.429688 261.800781 130.40625 265.351562 144.148438 269.109375 C 153.792969 271.75 163.761719 274.480469 173.390625 279.730469 C 183.441406 285.210938 195.21875 290.285156 208.558594 291.203125 C 197.324219 290.734375 185.671875 287.445312 173.359375 281.332031 C 164.511719 276.941406 155.421875 274.234375 146.632812 271.613281 C 132.089844 267.285156 118.355469 263.191406 108.050781 252.101562 C 104.832031 248.640625 101.800781 244.808594 99 240.679688 C 101.023438 243.574219 103.179688 246.355469 105.480469 248.980469 Z M 106.234375 253.09375 C 106.679688 253.601562 107.128906 254.105469 107.585938 254.605469 C 119.949219 268.171875 136.355469 273.59375 153.726562 279.332031 C 159.914062 281.371094 166.308594 283.484375 172.574219 286.007812 C 185.964844 291.390625 198.730469 293.765625 210.992188 293.128906 C 198.648438 294.140625 185.796875 292.289062 172.503906 287.542969 C 168.371094 286.070312 164.167969 284.675781 160.105469 283.324219 C 140.4375 276.800781 121.867188 270.636719 107.992188 255.277344 C 104.21875 251.097656 100.835938 246.65625 97.832031 242.019531 C 100.394531 245.90625 103.199219 249.613281 106.238281 253.089844 Z M 106.476562 254.460938 C 106.832031 254.867188 107.195312 255.273438 107.554688 255.671875 C 121.535156 271.148438 140.179688 277.335938 159.917969 283.886719 C 163.980469 285.234375 168.179688 286.628906 172.304688 288.101562 C 185.710938 292.882812 198.664062 294.746094 211.105469 293.714844 C 198.578125 295.121094 185.53125 293.78125 172.214844 289.617188 L 170.21875 289 C 147.707031 281.972656 124.425781 274.707031 107.972656 256.339844 C 107.695312 256.027344 107.421875 255.71875 107.144531 255.402344 C 104.222656 252.0625 101.550781 248.5625 99.101562 244.945312 C 101.386719 248.261719 103.84375 251.453125 106.480469 254.464844 Z M 106.675781 255.78125 C 106.957031 256.101562 107.238281 256.425781 107.523438 256.742188 C 124.085938 275.238281 147.445312 282.523438 170.039062 289.574219 L 172.035156 290.195312 C 185.433594 294.382812 198.554688 295.734375 211.160156 294.320312 C 198.464844 296.113281 185.242188 295.277344 171.921875 291.691406 C 150.144531 285.835938 125.519531 277.179688 107.949219 257.398438 C 107.761719 257.1875 107.585938 256.984375 107.398438 256.773438 C 105.417969 254.507812 103.550781 252.167969 101.785156 249.769531 C 103.339844 251.824219 104.96875 253.832031 106.671875 255.78125 Z M 107.917969 259.515625 C 105.953125 257.269531 104.09375 254.953125 102.335938 252.585938 C 103.90625 254.652344 105.542969 256.675781 107.265625 258.640625 L 107.46875 258.871094 C 122.855469 276.292969 144.398438 288.238281 171.503906 294.378906 C 184.285156 297.273438 196.925781 297.796875 209.078125 296.0625 C 173.09375 302.238281 134.265625 289.640625 107.921875 259.515625 Z M 171.636719 293.765625 C 144.664062 287.660156 123.230469 275.777344 107.933594 258.457031 L 107.742188 258.238281 C 105.828125 256.046875 104.015625 253.792969 102.292969 251.484375 C 103.773438 253.421875 105.3125 255.320312 106.929688 257.164062 C 107.117188 257.378906 107.304688 257.589844 107.496094 257.804688 C 125.171875 277.707031 149.902344 286.40625 171.765625 292.289062 C 187.308594 296.46875 202.71875 296.941406 217.320312 293.867188 C 202.742188 297.285156 187.292969 297.3125 171.636719 293.765625 Z M 258.59375 272.886719 C 258.421875 273.035156 258.246094 273.183594 258.070312 273.328125 C 257.875 273.488281 257.683594 273.648438 257.488281 273.808594 C 257.324219 273.941406 257.164062 274.070312 257 274.199219 C 256.832031 274.332031 256.660156 274.472656 256.496094 274.601562 C 256.355469 274.710938 256.214844 274.816406 256.078125 274.917969 C 255.886719 275.066406 255.695312 275.207031 255.503906 275.351562 C 255.476562 275.375 255.445312 275.398438 255.417969 275.417969 C 255.027344 275.707031 254.636719 275.992188 254.246094 276.273438 C 254.226562 276.285156 254.207031 276.296875 254.191406 276.3125 C 253.597656 276.726562 253.007812 277.132812 252.417969 277.535156 C 252.308594 277.605469 252.199219 277.683594 252.089844 277.757812 C 251.773438 277.964844 251.453125 278.191406 251.132812 278.394531 C 251.046875 278.449219 250.964844 278.496094 250.882812 278.554688 C 250.03125 279.097656 249.1875 279.605469 248.347656 280.105469 C 248.058594 280.273438 247.769531 280.445312 247.480469 280.609375 C 246.863281 280.964844 246.253906 281.300781 245.644531 281.632812 C 245.171875 281.882812 244.707031 282.128906 244.238281 282.371094 C 244.179688 282.398438 244.121094 282.429688 244.0625 282.460938 C 243.925781 282.53125 243.792969 282.59375 243.65625 282.664062 C 211.792969 298.367188 192.84375 279.53125 175.898438 262.6875 C 163.4375 250.296875 148.78125 250 135.851562 249.738281 C 125.296875 249.527344 115.328125 249.324219 108.21875 242.574219 C 104.71875 239.253906 81.039062 215.386719 81.417969 178.816406 C 81.503906 174.148438 81.953125 169.355469 82.835938 164.464844 C 82.871094 164.269531 82.90625 164.078125 82.945312 163.882812 C 83.09375 163.070312 83.273438 162.25 83.445312 161.433594 C 83.617188 160.660156 83.785156 159.886719 83.976562 159.109375 C 84.054688 158.785156 84.140625 158.457031 84.222656 158.128906 C 84.519531 156.960938 84.832031 155.792969 85.175781 154.625 C 85.175781 154.625 85.175781 154.625 85.175781 154.617188 C 85.554688 153.332031 85.96875 152.042969 86.40625 150.753906 C 86.457031 150.609375 86.503906 150.460938 86.558594 150.3125 C 86.917969 149.273438 87.300781 148.234375 87.699219 147.195312 C 87.878906 146.738281 88.054688 146.277344 88.238281 145.820312 C 88.421875 145.355469 88.621094 144.886719 88.820312 144.421875 C 88.902344 144.222656 88.984375 144.023438 89.066406 143.824219 C 89.105469 143.738281 89.140625 143.652344 89.175781 143.566406 C 89.441406 142.949219 89.707031 142.332031 89.984375 141.71875 C 90.019531 141.644531 90.050781 141.570312 90.082031 141.492188 C 90.101562 141.449219 90.125 141.40625 90.144531 141.363281 C 90.230469 141.183594 90.316406 141 90.402344 140.820312 C 90.613281 140.363281 90.835938 139.90625 91.058594 139.449219 C 91.105469 139.347656 91.15625 139.246094 91.203125 139.148438 C 91.300781 138.953125 91.394531 138.761719 91.492188 138.566406 C 91.566406 138.417969 91.640625 138.269531 91.714844 138.121094 C 91.964844 137.628906 92.203125 137.136719 92.457031 136.648438 C 98.332031 125.570312 106.210938 115.792969 115.6875 107.492188 C 159.585938 69.050781 227.554688 74.664062 267.210938 120.011719 C 306.863281 165.355469 303.484375 233.605469 259.589844 272.046875 C 259.261719 272.332031 258.925781 272.609375 258.597656 272.894531 Z M 258.59375 272.886719 " clip-rule="nonzero"/></clipPath><linearGradient x1="-153.394967" gradientTransform="matrix(0.142685, 0.280602, -0.280162, 0.142462, 233.044749, 43.299869)" y1="339.92001" x2="866.379014" gradientUnits="userSpaceOnUse" y2="339.92001" id="be4ec774ba"><stop stop-opacity="1" stop-color="rgb(45.098877%, 45.098877%, 45.098877%)" offset="0"/><stop stop-opacity="1" stop-color="rgb(45.098877%, 45.098877%, 45.098877%)" offset="0.0625"/><stop stop-opacity="1" stop-color="rgb(45.098877%, 45.098877%, 45.098877%)" offset="0.078125"/><stop stop-opacity="1" stop-color="rgb(45.098877%, 45.098877%, 45.098877%)" offset="0.0859375"/><stop stop-opacity="1" stop-color="rgb(45.372009%, 45.372009%, 45.372009%)" offset="0.0898438"/><stop stop-opacity="1" stop-color="rgb(45.646667%, 45.646667%, 45.646667%)" offset="0.09375"/><stop stop-opacity="1" stop-color="rgb(46.508789%, 46.508789%, 46.508789%)" offset="0.0976562"/><stop stop-opacity="1" stop-color="rgb(47.370911%, 47.370911%, 47.370911%)" offset="0.101562"/><stop stop-opacity="1" stop-color="rgb(48.233032%, 48.233032%, 48.233032%)" offset="0.105469"/><stop stop-opacity="1" stop-color="rgb(49.095154%, 49.095154%, 49.095154%)" offset="0.109375"/><stop stop-opacity="1" stop-color="rgb(49.95575%, 49.95575%, 49.95575%)" offset="0.113281"/><stop stop-opacity="1" stop-color="rgb(50.817871%, 50.817871%, 50.817871%)" offset="0.117188"/><stop stop-opacity="1" stop-color="rgb(51.679993%, 51.679993%, 51.679993%)" offset="0.121094"/><stop stop-opacity="1" stop-color="rgb(52.542114%, 52.542114%, 52.542114%)" offset="0.125"/><stop stop-opacity="1" stop-color="rgb(53.404236%, 53.404236%, 53.404236%)" offset="0.128906"/><stop stop-opacity="1" stop-color="rgb(54.266357%, 54.266357%, 54.266357%)" offset="0.132812"/><stop stop-opacity="1" stop-color="rgb(55.128479%, 55.128479%, 55.128479%)" offset="0.136719"/><stop stop-opacity="1" stop-color="rgb(55.990601%, 55.990601%, 55.990601%)" offset="0.140625"/><stop stop-opacity="1" stop-color="rgb(56.852722%, 56.852722%, 56.852722%)" offset="0.144531"/><stop stop-opacity="1" stop-color="rgb(57.714844%, 57.714844%, 57.714844%)" offset="0.148438"/><stop stop-opacity="1" stop-color="rgb(58.576965%, 58.576965%, 58.576965%)" offset="0.152344"/><stop stop-opacity="1" stop-color="rgb(59.439087%, 59.439087%, 59.439087%)" offset="0.15625"/><stop stop-opacity="1" stop-color="rgb(60.299683%, 60.299683%, 60.299683%)" offset="0.160156"/><stop stop-opacity="1" stop-color="rgb(61.161804%, 61.161804%, 61.161804%)" offset="0.164062"/><stop stop-opacity="1" stop-color="rgb(62.023926%, 62.023926%, 62.023926%)" offset="0.167969"/><stop stop-opacity="1" stop-color="rgb(62.886047%, 62.886047%, 62.886047%)" offset="0.171875"/><stop stop-opacity="1" stop-color="rgb(63.748169%, 63.748169%, 63.748169%)" offset="0.175781"/><stop stop-opacity="1" stop-color="rgb(64.610291%, 64.610291%, 64.610291%)" offset="0.179688"/><stop stop-opacity="1" stop-color="rgb(65.472412%, 65.472412%, 65.472412%)" offset="0.183594"/><stop stop-opacity="1" stop-color="rgb(66.334534%, 66.334534%, 66.334534%)" offset="0.1875"/><stop stop-opacity="1" stop-color="rgb(67.196655%, 67.196655%, 67.196655%)" offset="0.191406"/><stop stop-opacity="1" stop-color="rgb(68.058777%, 68.058777%, 68.058777%)" offset="0.195312"/><stop stop-opacity="1" stop-color="rgb(68.919373%, 68.919373%, 68.919373%)" offset="0.199219"/><stop stop-opacity="1" stop-color="rgb(69.781494%, 69.781494%, 69.781494%)" offset="0.203125"/><stop stop-opacity="1" stop-color="rgb(70.643616%, 70.643616%, 70.643616%)" offset="0.207031"/><stop stop-opacity="1" stop-color="rgb(71.505737%, 71.505737%, 71.505737%)" offset="0.210938"/><stop stop-opacity="1" stop-color="rgb(72.367859%, 72.367859%, 72.367859%)" offset="0.214844"/><stop stop-opacity="1" stop-color="rgb(73.22998%, 73.22998%, 73.22998%)" offset="0.21875"/><stop stop-opacity="1" stop-color="rgb(74.092102%, 74.092102%, 74.092102%)" offset="0.222656"/><stop stop-opacity="1" stop-color="rgb(74.954224%, 74.954224%, 74.954224%)" offset="0.226562"/><stop stop-opacity="1" stop-color="rgb(75.816345%, 75.816345%, 75.816345%)" offset="0.230469"/><stop stop-opacity="1" stop-color="rgb(76.678467%, 76.678467%, 76.678467%)" offset="0.234375"/><stop stop-opacity="1" stop-color="rgb(77.540588%, 77.540588%, 77.540588%)" offset="0.238281"/><stop stop-opacity="1" stop-color="rgb(78.40271%, 78.40271%, 78.40271%)" offset="0.242188"/><stop stop-opacity="1" stop-color="rgb(79.263306%, 79.263306%, 79.263306%)" offset="0.246094"/><stop stop-opacity="1" stop-color="rgb(80.125427%, 80.125427%, 80.125427%)" offset="0.25"/><stop stop-opacity="1" stop-color="rgb(80.987549%, 80.987549%, 80.987549%)" offset="0.253906"/><stop stop-opacity="1" stop-color="rgb(81.84967%, 81.84967%, 81.84967%)" offset="0.257812"/><stop stop-opacity="1" stop-color="rgb(82.711792%, 82.711792%, 82.711792%)" offset="0.261719"/><stop stop-opacity="1" stop-color="rgb(83.573914%, 83.573914%, 83.573914%)" offset="0.265625"/><stop stop-opacity="1" stop-color="rgb(84.240723%, 84.240723%, 84.240723%)" offset="0.269531"/><stop stop-opacity="1" stop-color="rgb(84.909058%, 84.909058%, 84.909058%)" offset="0.273438"/><stop stop-opacity="1" stop-color="rgb(84.086609%, 84.086609%, 84.086609%)" offset="0.277344"/><stop stop-opacity="1" stop-color="rgb(83.26416%, 83.26416%, 83.26416%)" offset="0.28125"/><stop stop-opacity="1" stop-color="rgb(82.440186%, 82.440186%, 82.440186%)" offset="0.285156"/><stop stop-opacity="1" stop-color="rgb(81.617737%, 81.617737%, 81.617737%)" offset="0.289062"/><stop stop-opacity="1" stop-color="rgb(80.795288%, 80.795288%, 80.795288%)" offset="0.292969"/><stop stop-opacity="1" stop-color="rgb(79.972839%, 79.972839%, 79.972839%)" offset="0.296875"/><stop stop-opacity="1" stop-color="rgb(79.148865%, 79.148865%, 79.148865%)" offset="0.300781"/><stop stop-opacity="1" stop-color="rgb(78.326416%, 78.326416%, 78.326416%)" offset="0.304688"/><stop stop-opacity="1" stop-color="rgb(77.503967%, 77.503967%, 77.503967%)" offset="0.308594"/><stop stop-opacity="1" stop-color="rgb(76.681519%, 76.681519%, 76.681519%)" offset="0.3125"/><stop stop-opacity="1" stop-color="rgb(75.857544%, 75.857544%, 75.857544%)" offset="0.316406"/><stop stop-opacity="1" stop-color="rgb(75.035095%, 75.035095%, 75.035095%)" offset="0.320312"/><stop stop-opacity="1" stop-color="rgb(74.212646%, 74.212646%, 74.212646%)" offset="0.324219"/><stop stop-opacity="1" stop-color="rgb(73.390198%, 73.390198%, 73.390198%)" offset="0.328125"/><stop stop-opacity="1" stop-color="rgb(72.566223%, 72.566223%, 72.566223%)" offset="0.332031"/><stop stop-opacity="1" stop-color="rgb(71.743774%, 71.743774%, 71.743774%)" offset="0.335938"/><stop stop-opacity="1" stop-color="rgb(70.921326%, 70.921326%, 70.921326%)" offset="0.339844"/><stop stop-opacity="1" stop-color="rgb(70.098877%, 70.098877%, 70.098877%)" offset="0.34375"/><stop stop-opacity="1" stop-color="rgb(69.274902%, 69.274902%, 69.274902%)" offset="0.347656"/><stop stop-opacity="1" stop-color="rgb(68.452454%, 68.452454%, 68.452454%)" offset="0.351562"/><stop stop-opacity="1" stop-color="rgb(67.630005%, 67.630005%, 67.630005%)" offset="0.355469"/><stop stop-opacity="1" stop-color="rgb(66.807556%, 66.807556%, 66.807556%)" offset="0.359375"/><stop stop-opacity="1" stop-color="rgb(65.985107%, 65.985107%, 65.985107%)" offset="0.363281"/><stop stop-opacity="1" stop-color="rgb(65.162659%, 65.162659%, 65.162659%)" offset="0.367188"/><stop stop-opacity="1" stop-color="rgb(64.338684%, 64.338684%, 64.338684%)" offset="0.371094"/><stop stop-opacity="1" stop-color="rgb(63.516235%, 63.516235%, 63.516235%)" offset="0.375"/><stop stop-opacity="1" stop-color="rgb(62.693787%, 62.693787%, 62.693787%)" offset="0.378906"/><stop stop-opacity="1" stop-color="rgb(61.871338%, 61.871338%, 61.871338%)" offset="0.382812"/><stop stop-opacity="1" stop-color="rgb(61.047363%, 61.047363%, 61.047363%)" offset="0.386719"/><stop stop-opacity="1" stop-color="rgb(60.224915%, 60.224915%, 60.224915%)" offset="0.390625"/><stop stop-opacity="1" stop-color="rgb(59.402466%, 59.402466%, 59.402466%)" offset="0.394531"/><stop stop-opacity="1" stop-color="rgb(58.580017%, 58.580017%, 58.580017%)" offset="0.398437"/><stop stop-opacity="1" stop-color="rgb(57.756042%, 57.756042%, 57.756042%)" offset="0.402344"/><stop stop-opacity="1" stop-color="rgb(56.933594%, 56.933594%, 56.933594%)" offset="0.40625"/><stop stop-opacity="1" stop-color="rgb(56.111145%, 56.111145%, 56.111145%)" offset="0.410156"/><stop stop-opacity="1" stop-color="rgb(55.288696%, 55.288696%, 55.288696%)" offset="0.414062"/><stop stop-opacity="1" stop-color="rgb(54.464722%, 54.464722%, 54.464722%)" offset="0.417969"/><stop stop-opacity="1" stop-color="rgb(53.642273%, 53.642273%, 53.642273%)" offset="0.421875"/><stop stop-opacity="1" stop-color="rgb(52.819824%, 52.819824%, 52.819824%)" offset="0.425781"/><stop stop-opacity="1" stop-color="rgb(51.997375%, 51.997375%, 51.997375%)" offset="0.429687"/><stop stop-opacity="1" stop-color="rgb(51.173401%, 51.173401%, 51.173401%)" offset="0.433594"/><stop stop-opacity="1" stop-color="rgb(50.350952%, 50.350952%, 50.350952%)" offset="0.4375"/><stop stop-opacity="1" stop-color="rgb(49.528503%, 49.528503%, 49.528503%)" offset="0.441406"/><stop stop-opacity="1" stop-color="rgb(48.706055%, 48.706055%, 48.706055%)" offset="0.445312"/><stop stop-opacity="1" stop-color="rgb(47.88208%, 47.88208%, 47.88208%)" offset="0.449219"/><stop stop-opacity="1" stop-color="rgb(47.059631%, 47.059631%, 47.059631%)" offset="0.453125"/><stop stop-opacity="1" stop-color="rgb(46.237183%, 46.237183%, 46.237183%)" offset="0.457031"/><stop stop-opacity="1" stop-color="rgb(45.414734%, 45.414734%, 45.414734%)" offset="0.460937"/><stop stop-opacity="1" stop-color="rgb(45.988464%, 45.988464%, 45.988464%)" offset="0.464844"/><stop stop-opacity="1" stop-color="rgb(46.562195%, 46.562195%, 46.562195%)" offset="0.46875"/><stop stop-opacity="1" stop-color="rgb(47.467041%, 47.467041%, 47.467041%)" offset="0.472656"/><stop stop-opacity="1" stop-color="rgb(48.373413%, 48.373413%, 48.373413%)" offset="0.476562"/><stop stop-opacity="1" stop-color="rgb(49.278259%, 49.278259%, 49.278259%)" offset="0.480469"/><stop stop-opacity="1" stop-color="rgb(50.183105%, 50.183105%, 50.183105%)" offset="0.484375"/><stop stop-opacity="1" stop-color="rgb(51.087952%, 51.087952%, 51.087952%)" offset="0.488281"/><stop stop-opacity="1" stop-color="rgb(51.992798%, 51.992798%, 51.992798%)" offset="0.492187"/><stop stop-opacity="1" stop-color="rgb(52.897644%, 52.897644%, 52.897644%)" offset="0.496094"/><stop stop-opacity="1" stop-color="rgb(53.804016%, 53.804016%, 53.804016%)" offset="0.5"/><stop stop-opacity="1" stop-color="rgb(54.708862%, 54.708862%, 54.708862%)" offset="0.503906"/><stop stop-opacity="1" stop-color="rgb(55.613708%, 55.613708%, 55.613708%)" offset="0.507812"/><stop stop-opacity="1" stop-color="rgb(56.518555%, 56.518555%, 56.518555%)" offset="0.511719"/><stop stop-opacity="1" stop-color="rgb(57.423401%, 57.423401%, 57.423401%)" offset="0.515625"/><stop stop-opacity="1" stop-color="rgb(58.328247%, 58.328247%, 58.328247%)" offset="0.519531"/><stop stop-opacity="1" stop-color="rgb(59.234619%, 59.234619%, 59.234619%)" offset="0.523438"/><stop stop-opacity="1" stop-color="rgb(60.139465%, 60.139465%, 60.139465%)" offset="0.527344"/><stop stop-opacity="1" stop-color="rgb(61.044312%, 61.044312%, 61.044312%)" offset="0.53125"/><stop stop-opacity="1" stop-color="rgb(61.949158%, 61.949158%, 61.949158%)" offset="0.535156"/><stop stop-opacity="1" stop-color="rgb(62.854004%, 62.854004%, 62.854004%)" offset="0.539062"/><stop stop-opacity="1" stop-color="rgb(63.75885%, 63.75885%, 63.75885%)" offset="0.542969"/><stop stop-opacity="1" stop-color="rgb(64.665222%, 64.665222%, 64.665222%)" offset="0.546875"/><stop stop-opacity="1" stop-color="rgb(65.570068%, 65.570068%, 65.570068%)" offset="0.550781"/><stop stop-opacity="1" stop-color="rgb(66.474915%, 66.474915%, 66.474915%)" offset="0.554688"/><stop stop-opacity="1" stop-color="rgb(67.379761%, 67.379761%, 67.379761%)" offset="0.558594"/><stop stop-opacity="1" stop-color="rgb(68.284607%, 68.284607%, 68.284607%)" offset="0.5625"/><stop stop-opacity="1" stop-color="rgb(69.189453%, 69.189453%, 69.189453%)" offset="0.566406"/><stop stop-opacity="1" stop-color="rgb(70.095825%, 70.095825%, 70.095825%)" offset="0.570312"/><stop stop-opacity="1" stop-color="rgb(71.000671%, 71.000671%, 71.000671%)" offset="0.574219"/><stop stop-opacity="1" stop-color="rgb(71.905518%, 71.905518%, 71.905518%)" offset="0.578125"/><stop stop-opacity="1" stop-color="rgb(72.810364%, 72.810364%, 72.810364%)" offset="0.582031"/><stop stop-opacity="1" stop-color="rgb(73.71521%, 73.71521%, 73.71521%)" offset="0.585938"/><stop stop-opacity="1" stop-color="rgb(74.620056%, 74.620056%, 74.620056%)" offset="0.589844"/><stop stop-opacity="1" stop-color="rgb(75.524902%, 75.524902%, 75.524902%)" offset="0.59375"/><stop stop-opacity="1" stop-color="rgb(76.429749%, 76.429749%, 76.429749%)" offset="0.597656"/><stop stop-opacity="1" stop-color="rgb(77.336121%, 77.336121%, 77.336121%)" offset="0.601562"/><stop stop-opacity="1" stop-color="rgb(78.240967%, 78.240967%, 78.240967%)" offset="0.605469"/><stop stop-opacity="1" stop-color="rgb(79.145813%, 79.145813%, 79.145813%)" offset="0.609375"/><stop stop-opacity="1" stop-color="rgb(80.050659%, 80.050659%, 80.050659%)" offset="0.613281"/><stop stop-opacity="1" stop-color="rgb(80.955505%, 80.955505%, 80.955505%)" offset="0.617188"/><stop stop-opacity="1" stop-color="rgb(81.860352%, 81.860352%, 81.860352%)" offset="0.621094"/><stop stop-opacity="1" stop-color="rgb(82.766724%, 82.766724%, 82.766724%)" offset="0.625"/><stop stop-opacity="1" stop-color="rgb(83.67157%, 83.67157%, 83.67157%)" offset="0.628906"/><stop stop-opacity="1" stop-color="rgb(84.576416%, 84.576416%, 84.576416%)" offset="0.632812"/><stop stop-opacity="1" stop-color="rgb(84.080505%, 84.080505%, 84.080505%)" offset="0.636719"/><stop stop-opacity="1" stop-color="rgb(83.584595%, 83.584595%, 83.584595%)" offset="0.640625"/><stop stop-opacity="1" stop-color="rgb(82.519531%, 82.519531%, 82.519531%)" offset="0.644531"/><stop stop-opacity="1" stop-color="rgb(81.454468%, 81.454468%, 81.454468%)" offset="0.648438"/><stop stop-opacity="1" stop-color="rgb(80.389404%, 80.389404%, 80.389404%)" offset="0.652344"/><stop stop-opacity="1" stop-color="rgb(79.325867%, 79.325867%, 79.325867%)" offset="0.65625"/><stop stop-opacity="1" stop-color="rgb(78.260803%, 78.260803%, 78.260803%)" offset="0.660156"/><stop stop-opacity="1" stop-color="rgb(77.19574%, 77.19574%, 77.19574%)" offset="0.664062"/><stop stop-opacity="1" stop-color="rgb(76.130676%, 76.130676%, 76.130676%)" offset="0.667969"/><stop stop-opacity="1" stop-color="rgb(75.065613%, 75.065613%, 75.065613%)" offset="0.671875"/><stop stop-opacity="1" stop-color="rgb(74.000549%, 74.000549%, 74.000549%)" offset="0.675781"/><stop stop-opacity="1" stop-color="rgb(72.937012%, 72.937012%, 72.937012%)" offset="0.679688"/><stop stop-opacity="1" stop-color="rgb(71.871948%, 71.871948%, 71.871948%)" offset="0.683594"/><stop stop-opacity="1" stop-color="rgb(70.806885%, 70.806885%, 70.806885%)" offset="0.6875"/><stop stop-opacity="1" stop-color="rgb(69.741821%, 69.741821%, 69.741821%)" offset="0.691406"/><stop stop-opacity="1" stop-color="rgb(68.676758%, 68.676758%, 68.676758%)" offset="0.695312"/><stop stop-opacity="1" stop-color="rgb(67.611694%, 67.611694%, 67.611694%)" offset="0.699219"/><stop stop-opacity="1" stop-color="rgb(66.548157%, 66.548157%, 66.548157%)" offset="0.703125"/><stop stop-opacity="1" stop-color="rgb(65.483093%, 65.483093%, 65.483093%)" offset="0.707031"/><stop stop-opacity="1" stop-color="rgb(64.41803%, 64.41803%, 64.41803%)" offset="0.710938"/><stop stop-opacity="1" stop-color="rgb(63.352966%, 63.352966%, 63.352966%)" offset="0.714844"/><stop stop-opacity="1" stop-color="rgb(62.287903%, 62.287903%, 62.287903%)" offset="0.71875"/><stop stop-opacity="1" stop-color="rgb(61.222839%, 61.222839%, 61.222839%)" offset="0.722656"/><stop stop-opacity="1" stop-color="rgb(60.159302%, 60.159302%, 60.159302%)" offset="0.726562"/><stop stop-opacity="1" stop-color="rgb(59.094238%, 59.094238%, 59.094238%)" offset="0.730469"/><stop stop-opacity="1" stop-color="rgb(58.029175%, 58.029175%, 58.029175%)" offset="0.734375"/><stop stop-opacity="1" stop-color="rgb(56.964111%, 56.964111%, 56.964111%)" offset="0.738281"/><stop stop-opacity="1" stop-color="rgb(55.899048%, 55.899048%, 55.899048%)" offset="0.742188"/><stop stop-opacity="1" stop-color="rgb(54.833984%, 54.833984%, 54.833984%)" offset="0.746094"/><stop stop-opacity="1" stop-color="rgb(53.770447%, 53.770447%, 53.770447%)" offset="0.75"/><stop stop-opacity="1" stop-color="rgb(52.705383%, 52.705383%, 52.705383%)" offset="0.753906"/><stop stop-opacity="1" stop-color="rgb(51.64032%, 51.64032%, 51.64032%)" offset="0.757812"/><stop stop-opacity="1" stop-color="rgb(50.575256%, 50.575256%, 50.575256%)" offset="0.761719"/><stop stop-opacity="1" stop-color="rgb(49.510193%, 49.510193%, 49.510193%)" offset="0.765625"/><stop stop-opacity="1" stop-color="rgb(48.445129%, 48.445129%, 48.445129%)" offset="0.769531"/><stop stop-opacity="1" stop-color="rgb(47.381592%, 47.381592%, 47.381592%)" offset="0.773438"/><stop stop-opacity="1" stop-color="rgb(46.316528%, 46.316528%, 46.316528%)" offset="0.777344"/><stop stop-opacity="1" stop-color="rgb(45.251465%, 45.251465%, 45.251465%)" offset="0.78125"/><stop stop-opacity="1" stop-color="rgb(46.01593%, 46.01593%, 46.01593%)" offset="0.785156"/><stop stop-opacity="1" stop-color="rgb(46.780396%, 46.780396%, 46.780396%)" offset="0.789062"/><stop stop-opacity="1" stop-color="rgb(47.685242%, 47.685242%, 47.685242%)" offset="0.792969"/><stop stop-opacity="1" stop-color="rgb(48.590088%, 48.590088%, 48.590088%)" offset="0.796875"/><stop stop-opacity="1" stop-color="rgb(49.494934%, 49.494934%, 49.494934%)" offset="0.800781"/><stop stop-opacity="1" stop-color="rgb(50.401306%, 50.401306%, 50.401306%)" offset="0.804688"/><stop stop-opacity="1" stop-color="rgb(51.306152%, 51.306152%, 51.306152%)" offset="0.808594"/><stop stop-opacity="1" stop-color="rgb(52.210999%, 52.210999%, 52.210999%)" offset="0.8125"/><stop stop-opacity="1" stop-color="rgb(53.115845%, 53.115845%, 53.115845%)" offset="0.816406"/><stop stop-opacity="1" stop-color="rgb(54.020691%, 54.020691%, 54.020691%)" offset="0.820312"/><stop stop-opacity="1" stop-color="rgb(54.925537%, 54.925537%, 54.925537%)" offset="0.824219"/><stop stop-opacity="1" stop-color="rgb(55.831909%, 55.831909%, 55.831909%)" offset="0.828125"/><stop stop-opacity="1" stop-color="rgb(56.736755%, 56.736755%, 56.736755%)" offset="0.832031"/><stop stop-opacity="1" stop-color="rgb(57.641602%, 57.641602%, 57.641602%)" offset="0.835938"/><stop stop-opacity="1" stop-color="rgb(58.546448%, 58.546448%, 58.546448%)" offset="0.839844"/><stop stop-opacity="1" stop-color="rgb(59.451294%, 59.451294%, 59.451294%)" offset="0.84375"/><stop stop-opacity="1" stop-color="rgb(60.35614%, 60.35614%, 60.35614%)" offset="0.847656"/><stop stop-opacity="1" stop-color="rgb(61.260986%, 61.260986%, 61.260986%)" offset="0.851562"/><stop stop-opacity="1" stop-color="rgb(62.165833%, 62.165833%, 62.165833%)" offset="0.855469"/><stop stop-opacity="1" stop-color="rgb(63.072205%, 63.072205%, 63.072205%)" offset="0.859375"/><stop stop-opacity="1" stop-color="rgb(63.977051%, 63.977051%, 63.977051%)" offset="0.863281"/><stop stop-opacity="1" stop-color="rgb(64.881897%, 64.881897%, 64.881897%)" offset="0.867188"/><stop stop-opacity="1" stop-color="rgb(65.786743%, 65.786743%, 65.786743%)" offset="0.871094"/><stop stop-opacity="1" stop-color="rgb(66.691589%, 66.691589%, 66.691589%)" offset="0.875"/><stop stop-opacity="1" stop-color="rgb(67.596436%, 67.596436%, 67.596436%)" offset="0.878906"/><stop stop-opacity="1" stop-color="rgb(68.502808%, 68.502808%, 68.502808%)" offset="0.882812"/><stop stop-opacity="1" stop-color="rgb(69.407654%, 69.407654%, 69.407654%)" offset="0.886719"/><stop stop-opacity="1" stop-color="rgb(70.3125%, 70.3125%, 70.3125%)" offset="0.890625"/><stop stop-opacity="1" stop-color="rgb(71.217346%, 71.217346%, 71.217346%)" offset="0.894531"/><stop stop-opacity="1" stop-color="rgb(72.122192%, 72.122192%, 72.122192%)" offset="0.898438"/><stop stop-opacity="1" stop-color="rgb(73.027039%, 73.027039%, 73.027039%)" offset="0.902344"/><stop stop-opacity="1" stop-color="rgb(73.933411%, 73.933411%, 73.933411%)" offset="0.90625"/><stop stop-opacity="1" stop-color="rgb(74.838257%, 74.838257%, 74.838257%)" offset="0.910156"/><stop stop-opacity="1" stop-color="rgb(75.743103%, 75.743103%, 75.743103%)" offset="0.914062"/><stop stop-opacity="1" stop-color="rgb(76.647949%, 76.647949%, 76.647949%)" offset="0.917969"/><stop stop-opacity="1" stop-color="rgb(77.552795%, 77.552795%, 77.552795%)" offset="0.921875"/><stop stop-opacity="1" stop-color="rgb(78.457642%, 78.457642%, 78.457642%)" offset="0.925781"/><stop stop-opacity="1" stop-color="rgb(79.364014%, 79.364014%, 79.364014%)" offset="0.929688"/><stop stop-opacity="1" stop-color="rgb(80.26886%, 80.26886%, 80.26886%)" offset="0.933594"/><stop stop-opacity="1" stop-color="rgb(81.173706%, 81.173706%, 81.173706%)" offset="0.9375"/><stop stop-opacity="1" stop-color="rgb(82.078552%, 82.078552%, 82.078552%)" offset="0.941406"/><stop stop-opacity="1" stop-color="rgb(82.983398%, 82.983398%, 82.983398%)" offset="0.945312"/><stop stop-opacity="1" stop-color="rgb(83.888245%, 83.888245%, 83.888245%)" offset="0.949219"/><stop stop-opacity="1" stop-color="rgb(84.794617%, 84.794617%, 84.794617%)" offset="0.953125"/><stop stop-opacity="1" stop-color="rgb(84.947205%, 84.947205%, 84.947205%)" offset="0.96875"/><stop stop-opacity="1" stop-color="rgb(85.099792%, 85.099792%, 85.099792%)" offset="1"/></linearGradient></defs><g clip-path="url(#dcb71ae47e)"><g clip-path="url(#d73ce68eae)"><g clip-path="url(#6d7e36be1e)"><g clip-path="url(#41cc91620a)"><path fill="url(#be4ec774ba)" d="M 260.550781 -24.859375 L -20.492188 118.050781 L 125.011719 404.203125 L 406.058594 261.292969 Z M 260.550781 -24.859375 " fill-rule="nonzero"/></g></g></g></g><g fill="#f5f5f5" fill-opacity="1"><g transform="translate(119.530943, 130.450685)"><g><path d="M 4.566406 -4.179688 L 4 -4.796875 L 0.816406 -1.882812 L -1.296875 -4.191406 L 1.792969 -7.019531 L 1.21875 -7.648438 L -1.871094 -4.820312 L -3.984375 -7.128906 L -0.796875 -10.042969 L -1.367188 -10.660156 L -5.21875 -7.136719 L 0.714844 -0.652344 Z M 4.566406 -4.179688 "/></g></g></g><g fill="#f5f5f5" fill-opacity="1"><g transform="translate(132.508874, 119.73827)"><g><path d="M 3.785156 -1.714844 L 2.28125 -11.734375 L 1.445312 -11.21875 L 2.613281 -3.617188 L -3.667969 -8.0625 L -4.503906 -7.546875 Z M 3.785156 -1.714844 "/></g></g></g><g fill="#f5f5f5" fill-opacity="1"><g transform="translate(148.218964, 111.177958)"><g><path d="M 5.785156 -2.207031 L 5.484375 -2.992188 L 1.453125 -1.453125 L 0.335938 -4.375 L 4.25 -5.867188 L 3.945312 -6.664062 L 0.03125 -5.171875 L -1.082031 -8.09375 L 2.949219 -9.632812 L 2.652344 -10.417969 L -2.226562 -8.554688 L 0.90625 -0.34375 Z M 5.785156 -2.207031 "/></g></g></g><g fill="#f5f5f5" fill-opacity="1"><g transform="translate(164.280458, 106.027362)"><g><path d="M -1.246094 -7.878906 L 0.847656 -8.28125 L 2.34375 -0.476562 L 3.230469 -0.644531 L 1.734375 -8.449219 L 3.828125 -8.851562 L 3.671875 -9.675781 L 1.578125 -9.277344 L 0.6875 -9.105469 L -1.40625 -8.703125 Z M -1.246094 -7.878906 "/></g></g></g><g fill="#f5f5f5" fill-opacity="1"><g transform="translate(179.535971, 103.906922)"><g><path d="M 1.808594 -4.371094 L 1.753906 -7.949219 L 3.796875 -7.980469 C 4.324219 -7.988281 4.753906 -7.824219 5.082031 -7.496094 C 5.398438 -7.164062 5.570312 -6.753906 5.578125 -6.234375 C 5.585938 -5.71875 5.425781 -5.289062 5.09375 -4.9375 C 4.765625 -4.582031 4.351562 -4.40625 3.847656 -4.402344 Z M 6.484375 -6.238281 C 6.472656 -6.984375 6.179688 -7.628906 5.628906 -8.125 C 5.089844 -8.605469 4.429688 -8.855469 3.652344 -8.84375 L 0.835938 -8.800781 L 0.96875 -0.015625 L 1.875 -0.0273438 L 1.820312 -3.503906 L 2.867188 -3.519531 L 5.503906 -0.0820312 L 6.71875 -0.101562 L 3.953125 -3.535156 C 4.636719 -3.585938 5.214844 -3.839844 5.6875 -4.300781 C 6.222656 -4.8125 6.496094 -5.460938 6.484375 -6.238281 Z M 6.484375 -6.238281 "/></g></g></g><g fill="#f5f5f5" fill-opacity="1"><g transform="translate(196.309677, 104.598981)"><g><path d="M 1.855469 0.269531 L 3.117188 -8.425781 L 2.222656 -8.554688 L 0.960938 0.140625 Z M 1.855469 0.269531 "/></g></g></g><g fill="#f5f5f5" fill-opacity="1"><g transform="translate(208.66808, 106.957026)"><g><path d="M 9.421875 0.257812 L 8.476562 -0.0546875 C 8.003906 0.390625 7.453125 0.699219 6.832031 0.851562 C 6.207031 1.011719 5.578125 0.984375 4.964844 0.78125 C 4.042969 0.480469 3.367188 -0.109375 2.941406 -1.007812 C 2.515625 -1.867188 2.46875 -2.765625 2.777344 -3.699219 C 3.082031 -4.632812 3.648438 -5.332031 4.503906 -5.785156 C 4.902344 -5.996094 5.335938 -6.125 5.800781 -6.175781 C 6.257812 -6.234375 6.679688 -6.203125 7.074219 -6.074219 C 7.453125 -5.949219 7.769531 -5.792969 8.035156 -5.609375 C 8.84375 -5.046875 9.34375 -4.285156 9.527344 -3.3125 L 10.472656 -3.003906 C 10.410156 -3.894531 10.117188 -4.695312 9.578125 -5.417969 C 9.027344 -6.140625 8.332031 -6.640625 7.488281 -6.917969 C 6.320312 -7.300781 5.195312 -7.191406 4.109375 -6.609375 C 3.597656 -6.339844 3.152344 -5.972656 2.773438 -5.523438 C 2.382812 -5.078125 2.105469 -4.558594 1.914062 -3.980469 C 1.53125 -2.804688 1.597656 -1.679688 2.132812 -0.578125 C 2.664062 0.546875 3.507812 1.285156 4.675781 1.667969 C 5.523438 1.945312 6.378906 1.953125 7.261719 1.699219 C 8.125 1.4375 8.835938 0.960938 9.421875 0.257812 Z M 9.421875 0.257812 "/></g></g></g><g fill="#f5f5f5" fill-opacity="1"><g transform="translate(226.466576, 113.95988)"><g><path d="M 1.65625 0.878906 L 5.777344 -6.878906 L 4.980469 -7.304688 L 0.855469 0.453125 Z M 1.65625 0.878906 "/></g></g></g><g fill="#f5f5f5" fill-opacity="1"><g transform="translate(237.306706, 120.389701)"><g><path d="M 3.863281 -1.113281 L 7.589844 -3.355469 L 6.398438 0.824219 Z M 6.230469 4.765625 L 8.878906 -5.039062 L 0.101562 0.078125 L 0.882812 0.675781 L 3.085938 -0.652344 L 6.152344 1.695312 L 5.449219 4.167969 Z M 6.230469 4.765625 "/></g></g></g><g fill="#f5f5f5" fill-opacity="1"><g transform="translate(250.734444, 131.92129)"><g/></g></g><g fill="#f5f5f5" fill-opacity="1"><g transform="translate(259.278323, 142.069914)"><g><path d="M 1.046875 1.554688 L 4.464844 -0.746094 L 2.695312 4.011719 L 3.347656 4.976562 L 5.1875 -0.15625 L 10.636719 0.0703125 L 9.988281 -0.894531 L 4.90625 -1.042969 L 8.335938 -3.347656 L 7.832031 -4.097656 L 0.539062 0.804688 Z M 1.046875 1.554688 "/></g></g></g><g fill="#f5f5f5" fill-opacity="1"><g transform="translate(267.431787, 155.625131)"><g><path d="M 3.917969 0.902344 L 8.265625 0.757812 L 5.191406 3.828125 Z M 3.128906 7.191406 L 10.207031 -0.0859375 L 0.0507812 0.117188 L 0.445312 1.019531 L 3.011719 0.929688 L 4.554688 4.472656 L 2.738281 6.292969 Z M 3.128906 7.191406 "/></g></g></g><g fill="#f5f5f5" fill-opacity="1"><g transform="translate(273.575096, 172.192172)"><g><path d="M 1.3125 1.613281 L 8.984375 -0.207031 L 8.773438 -1.089844 L 0.222656 0.941406 L 0.433594 1.824219 L 1.160156 4.878906 L 2.039062 4.667969 Z M 1.3125 1.613281 "/></g></g></g><g fill="#f5f5f5" fill-opacity="1"><g transform="translate(276.313099, 186.923506)"><g><path d="M 3.359375 2.207031 L 7.488281 3.578125 L 3.539062 5.390625 Z M 0.441406 7.832031 L 9.605469 3.457031 L 0.0078125 0.128906 L 0.0625 1.109375 L 2.503906 1.917969 L 2.71875 5.773438 L 0.386719 6.851562 Z M 0.441406 7.832031 "/></g></g></g><g fill="#f5f5f5" fill-opacity="1"><g transform="translate(276.328986, 204.592422)"><g><path d="M 0.671875 1.96875 L 8.496094 2.917969 L 8.605469 2.023438 L -0.117188 0.960938 L -0.226562 1.859375 L -0.605469 4.976562 L 0.292969 5.085938 Z M 0.671875 1.96875 "/></g></g></g><g fill="#f5f5f5" fill-opacity="1"><g transform="translate(273.786824, 219.359365)"><g><path d="M 2.386719 3.234375 L 5.78125 5.953125 L 1.449219 6.285156 Z M -2.304688 7.5 L 7.808594 6.574219 L -0.0390625 0.125 L -0.328125 1.0625 L 1.683594 2.667969 L 0.546875 6.359375 L -2.015625 6.558594 Z M -2.304688 7.5 "/></g></g></g><g fill="#f5f5f5" fill-opacity="1"><g transform="translate(178.629381, 223.025139)"><g><path d="M 45.007812 6.253906 L 44.597656 5.722656 C 42.921875 6.640625 41.472656 5.375 40.710938 4.027344 C 38.71875 0.71875 38.082031 -10.933594 37.550781 -15.203125 C 37.046875 -19.246094 35.445312 -22.996094 30.527344 -24.011719 C 29.03125 -24.324219 27.601562 -24.246094 26.214844 -24.011719 L 42.492188 -35.511719 C 43.867188 -36.417969 45.242188 -37.324219 46.617188 -38.226562 C 48.253906 -39.300781 49.15625 -40.082031 51.351562 -39.554688 L 51.484375 -40.195312 L 39.582031 -42.652344 L 39.449219 -42.011719 C 41.386719 -41.6875 42.386719 -41.480469 42.859375 -39.820312 C 42.917969 -39.734375 42.945312 -39.507812 42.972656 -39.277344 C 43.277344 -37.878906 42.457031 -37.15625 41.410156 -36.40625 L 22.269531 -22.894531 C 19.847656 -21.242188 17.769531 -19.8125 15.5 -17.828125 L 19.316406 -36.289062 C 20.875 -43.84375 22.800781 -45.601562 25.835938 -44.824219 L 25.96875 -45.46875 L 10.074219 -48.75 L 9.941406 -48.109375 C 13.035156 -47.621094 14.105469 -45.242188 12.542969 -37.6875 L 6.636719 -9.105469 C 5.078125 -1.550781 3.167969 0.132812 0.132812 -0.640625 L 0 0 L 15.894531 3.285156 L 16.027344 2.644531 C 12.933594 2.152344 11.847656 -0.152344 13.410156 -7.707031 L 15.03125 -15.546875 C 16.320312 -16.765625 17.945312 -18.140625 19.664062 -19.273438 C 25.566406 -23.03125 30.015625 -22.261719 30.972656 -15.375 C 31.753906 -10.160156 31.679688 -2.96875 33.273438 2.265625 C 34.09375 5.113281 35.78125 7.394531 39.273438 8.113281 C 41.339844 8.542969 43.582031 8.113281 45.007812 6.253906 Z M 45.007812 6.253906 "/></g></g></g><g fill="#f5f5f5" fill-opacity="1"><g transform="translate(148.909078, 181.899879)"><g><path d="M 54.527344 -28.109375 C 51.128906 -33.59375 45.265625 -38.015625 38.804688 -40.035156 C 25.605469 -44.15625 11.585938 -37.097656 7.417969 -23.757812 C 3.167969 -10.144531 10.351562 3.234375 23.96875 7.484375 C 31.679688 9.894531 40.148438 8.648438 46.546875 2.566406 L 46.171875 2.066406 C 42.378906 4.921875 38.03125 6.15625 33.628906 5.851562 C 22.425781 5.097656 13.796875 -4.382812 13.308594 -15.515625 C 12.859375 -25.796875 18.378906 -39.320312 30.132812 -39.84375 C 38.25 -40.207031 46.058594 -35.175781 49.851562 -22.175781 Z M 54.527344 -28.109375 "/></g></g></g><g fill="#f5f5f5" fill-opacity="1"><g transform="translate(148.553241, 187.670239)"><g><path d="M 29.113281 -28.75 C 25.691406 -24.601562 20.816406 -26.636719 16.375 -27.875 C 8.441406 -30.058594 3.058594 -28.382812 0 -21.25 L 0.726562 -20.960938 C 4.148438 -25.109375 9.023438 -23.070312 13.535156 -21.835938 C 21.46875 -19.652344 26.855469 -21.25 29.914062 -28.457031 Z M 29.113281 -28.75 "/></g></g></g></svg>